<mxfile host="Electron" modified="2024-02-08T16:41:03.205Z" agent="Mozilla/5.0 (Windows NT 10.0; Win64; x64) AppleWebKit/537.36 (KHTML, like Gecko) draw.io/23.0.2 Chrome/120.0.6099.109 Electron/28.1.0 Safari/537.36" etag="6buKhhuNSop8YVE5ba0u" version="23.0.2" type="device">
  <diagram name="Page-1" id="e3a06f82-3646-2815-327d-82caf3d4e204">
    <mxGraphModel dx="3593.5" dy="1485" grid="1" gridSize="10" guides="1" tooltips="1" connect="1" arrows="1" fold="1" page="1" pageScale="1.5" pageWidth="1169" pageHeight="826" background="none" math="0" shadow="0">
      <root>
        <mxCell id="0" style=";html=1;" />
        <mxCell id="1" style=";html=1;" parent="0" />
        <mxCell id="ZnPznCh_uuBDFXuvqWvI-9" value="Fleet" style="sketch=0;outlineConnect=0;gradientColor=none;html=1;whiteSpace=wrap;fontSize=12;fontStyle=0;shape=mxgraph.aws4.group;grIcon=mxgraph.aws4.group_spot_fleet;strokeColor=#232F3E;fillColor=none;verticalAlign=top;align=left;spacingLeft=30;fontColor=#232F3E;dashed=0;" vertex="1" parent="1">
          <mxGeometry x="-30" y="80" width="1660" height="1390" as="geometry" />
        </mxCell>
        <mxCell id="6a7d8f32e03d9370-61" value="Outside Networks" style="whiteSpace=wrap;html=1;fillColor=#f8cecc;fontSize=14;strokeColor=none;verticalAlign=top;" parent="1" vertex="1">
          <mxGeometry x="1084" y="296" width="493" height="360" as="geometry" />
        </mxCell>
        <mxCell id="6a7d8f32e03d9370-57" value="Cargo Area" style="whiteSpace=wrap;html=1;fillColor=#FFD470;gradientColor=none;fontSize=14;strokeColor=none;verticalAlign=top;" parent="1" vertex="1">
          <mxGeometry x="40" y="200" width="750" height="290" as="geometry" />
        </mxCell>
        <mxCell id="6a7d8f32e03d9370-43" style="edgeStyle=none;rounded=0;html=1;startSize=10;endSize=10;jettySize=auto;orthogonalLoop=1;fontSize=14;endArrow=none;endFill=0;strokeWidth=2;exitX=1;exitY=0.45;exitDx=0;exitDy=0;exitPerimeter=0;entryX=0.37;entryY=0.519;entryDx=0;entryDy=0;entryPerimeter=0;" parent="1" source="ZnPznCh_uuBDFXuvqWvI-4" target="6a7d8f32e03d9370-17" edge="1">
          <mxGeometry relative="1" as="geometry">
            <mxPoint x="573.9999999999995" y="201.12551440329207" as="sourcePoint" />
            <mxPoint x="641" y="314.2688679245284" as="targetPoint" />
          </mxGeometry>
        </mxCell>
        <mxCell id="6a7d8f32e03d9370-51" style="edgeStyle=none;rounded=0;html=1;startSize=10;endSize=10;jettySize=auto;orthogonalLoop=1;fontSize=14;endArrow=none;endFill=0;strokeWidth=2;" parent="1" source="6a7d8f32e03d9370-13" target="6a7d8f32e03d9370-15" edge="1">
          <mxGeometry relative="1" as="geometry" />
        </mxCell>
        <mxCell id="6a7d8f32e03d9370-52" style="edgeStyle=none;rounded=0;html=1;startSize=10;endSize=10;jettySize=auto;orthogonalLoop=1;fontSize=14;endArrow=none;endFill=0;strokeWidth=2;" parent="1" source="6a7d8f32e03d9370-13" target="6a7d8f32e03d9370-26" edge="1">
          <mxGeometry relative="1" as="geometry" />
        </mxCell>
        <mxCell id="6a7d8f32e03d9370-15" value="Web Server" style="verticalLabelPosition=top;aspect=fixed;html=1;verticalAlign=bottom;strokeColor=none;shape=mxgraph.citrix.cache_server;fillColor=#66B2FF;gradientColor=#0066CC;fontSize=14;labelPosition=center;align=center;" parent="1" vertex="1">
          <mxGeometry x="965" y="220" width="71" height="97.5" as="geometry" />
        </mxCell>
        <mxCell id="6a7d8f32e03d9370-44" style="edgeStyle=none;rounded=0;html=1;startSize=10;endSize=10;jettySize=auto;orthogonalLoop=1;fontSize=14;endArrow=none;endFill=0;strokeWidth=2;entryX=0.251;entryY=0.314;entryDx=0;entryDy=0;entryPerimeter=0;" parent="1" source="6a7d8f32e03d9370-17" target="6a7d8f32e03d9370-13" edge="1">
          <mxGeometry relative="1" as="geometry" />
        </mxCell>
        <mxCell id="6a7d8f32e03d9370-17" value="" style="verticalLabelPosition=bottom;aspect=fixed;html=1;verticalAlign=top;strokeColor=none;shape=mxgraph.citrix.firewall;fillColor=#66B2FF;gradientColor=#0066CC;fontSize=14;" parent="1" vertex="1">
          <mxGeometry x="830" y="266.75" width="75" height="93" as="geometry" />
        </mxCell>
        <mxCell id="6a7d8f32e03d9370-53" style="edgeStyle=none;rounded=0;html=1;startSize=10;endSize=10;jettySize=auto;orthogonalLoop=1;fontSize=14;endArrow=none;endFill=0;strokeWidth=2;" parent="1" source="6a7d8f32e03d9370-26" target="6a7d8f32e03d9370-29" edge="1">
          <mxGeometry relative="1" as="geometry" />
        </mxCell>
        <mxCell id="6a7d8f32e03d9370-54" style="edgeStyle=none;rounded=0;html=1;startSize=10;endSize=10;jettySize=auto;orthogonalLoop=1;fontSize=14;endArrow=none;endFill=0;strokeWidth=2;" parent="1" source="6a7d8f32e03d9370-26" target="6a7d8f32e03d9370-28" edge="1">
          <mxGeometry relative="1" as="geometry" />
        </mxCell>
        <mxCell id="6a7d8f32e03d9370-55" style="edgeStyle=none;rounded=0;html=1;startSize=10;endSize=10;jettySize=auto;orthogonalLoop=1;fontSize=14;endArrow=none;endFill=0;strokeWidth=2;" parent="1" source="6a7d8f32e03d9370-26" target="6a7d8f32e03d9370-27" edge="1">
          <mxGeometry relative="1" as="geometry" />
        </mxCell>
        <mxCell id="6a7d8f32e03d9370-26" value="" style="verticalLabelPosition=bottom;aspect=fixed;html=1;verticalAlign=top;strokeColor=none;shape=mxgraph.citrix.switch;fillColor=#66B2FF;gradientColor=#0066CC;fontSize=14;" parent="1" vertex="1">
          <mxGeometry x="1175" y="508" width="92" height="41.5" as="geometry" />
        </mxCell>
        <mxCell id="6a7d8f32e03d9370-27" value="Client" style="verticalLabelPosition=top;aspect=fixed;html=1;verticalAlign=bottom;strokeColor=none;shape=mxgraph.citrix.thin_client;fillColor=#66B2FF;gradientColor=#0066CC;fontSize=14;labelPosition=center;align=center;" parent="1" vertex="1">
          <mxGeometry x="1437" y="498" width="71" height="71" as="geometry" />
        </mxCell>
        <mxCell id="6a7d8f32e03d9370-28" value="Client" style="verticalLabelPosition=top;aspect=fixed;html=1;verticalAlign=bottom;strokeColor=none;shape=mxgraph.citrix.thin_client;fillColor=#66B2FF;gradientColor=#0066CC;fontSize=14;labelPosition=center;align=center;" parent="1" vertex="1">
          <mxGeometry x="1359" y="374" width="71" height="71" as="geometry" />
        </mxCell>
        <mxCell id="6a7d8f32e03d9370-29" value="Client" style="verticalLabelPosition=top;aspect=fixed;html=1;verticalAlign=bottom;strokeColor=none;shape=mxgraph.citrix.thin_client;fillColor=#66B2FF;gradientColor=#0066CC;fontSize=14;labelPosition=center;align=center;" parent="1" vertex="1">
          <mxGeometry x="1203" y="338" width="71" height="71" as="geometry" />
        </mxCell>
        <mxCell id="6a7d8f32e03d9370-62" value="Network Architecture" style="text;strokeColor=none;fillColor=none;html=1;fontSize=24;fontStyle=1;verticalAlign=middle;align=center;" parent="1" vertex="1">
          <mxGeometry x="499" y="30" width="861" height="40" as="geometry" />
        </mxCell>
        <mxCell id="ZnPznCh_uuBDFXuvqWvI-1" value="" style="shape=mxgraph.signs.transportation.ship_2;html=1;pointerEvents=1;fillColor=#000000;strokeColor=none;verticalLabelPosition=bottom;verticalAlign=top;align=center;" vertex="1" parent="1">
          <mxGeometry x="121" y="102" width="99" height="98" as="geometry" />
        </mxCell>
        <mxCell id="ZnPznCh_uuBDFXuvqWvI-3" value="" style="outlineConnect=0;dashed=0;verticalLabelPosition=bottom;verticalAlign=top;align=center;html=1;shape=mxgraph.aws3.actuator;fillColor=#5294CF;gradientColor=none;" vertex="1" parent="1">
          <mxGeometry x="211" y="281.75" width="76.5" height="90" as="geometry" />
        </mxCell>
        <mxCell id="ZnPznCh_uuBDFXuvqWvI-4" value="" style="outlineConnect=0;dashed=0;verticalLabelPosition=bottom;verticalAlign=top;align=center;html=1;shape=mxgraph.aws3.simulator;fillColor=#5294CF;gradientColor=none;" vertex="1" parent="1">
          <mxGeometry x="471" y="281.75" width="75" height="78" as="geometry" />
        </mxCell>
        <mxCell id="ZnPznCh_uuBDFXuvqWvI-5" value="" style="outlineConnect=0;dashed=0;verticalLabelPosition=bottom;verticalAlign=top;align=center;html=1;shape=mxgraph.aws3.sensor;fillColor=#5294CF;gradientColor=none;" vertex="1" parent="1">
          <mxGeometry x="341" y="281.75" width="76.5" height="90" as="geometry" />
        </mxCell>
        <mxCell id="ZnPznCh_uuBDFXuvqWvI-7" value="" style="endArrow=none;html=1;rounded=0;" edge="1" parent="1" source="ZnPznCh_uuBDFXuvqWvI-5" target="ZnPznCh_uuBDFXuvqWvI-4">
          <mxGeometry width="50" height="50" relative="1" as="geometry">
            <mxPoint x="144" y="369.5" as="sourcePoint" />
            <mxPoint x="194" y="319.5" as="targetPoint" />
          </mxGeometry>
        </mxCell>
        <mxCell id="ZnPznCh_uuBDFXuvqWvI-8" value="" style="endArrow=none;html=1;rounded=0;" edge="1" parent="1" source="ZnPznCh_uuBDFXuvqWvI-3" target="ZnPznCh_uuBDFXuvqWvI-5">
          <mxGeometry width="50" height="50" relative="1" as="geometry">
            <mxPoint x="148" y="263.5" as="sourcePoint" />
            <mxPoint x="364" y="230" as="targetPoint" />
          </mxGeometry>
        </mxCell>
        <mxCell id="ZnPznCh_uuBDFXuvqWvI-13" style="edgeStyle=none;rounded=0;html=1;startSize=10;endSize=10;jettySize=auto;orthogonalLoop=1;fontSize=14;endArrow=none;endFill=0;strokeWidth=2;exitX=1;exitY=0.45;exitDx=0;exitDy=0;exitPerimeter=0;entryX=0.487;entryY=0.465;entryDx=0;entryDy=0;entryPerimeter=0;" edge="1" parent="1" source="ZnPznCh_uuBDFXuvqWvI-17" target="ZnPznCh_uuBDFXuvqWvI-14">
          <mxGeometry relative="1" as="geometry">
            <mxPoint x="573.9999999999995" y="621.1255144032921" as="sourcePoint" />
            <mxPoint x="641" y="734.3520408163263" as="targetPoint" />
          </mxGeometry>
        </mxCell>
        <mxCell id="ZnPznCh_uuBDFXuvqWvI-21" style="edgeStyle=none;rounded=0;html=1;startSize=10;endSize=10;jettySize=auto;orthogonalLoop=1;fontSize=14;endArrow=none;endFill=0;strokeWidth=2;exitX=0.778;exitY=0.477;exitDx=0;exitDy=0;exitPerimeter=0;" edge="1" parent="1" source="ZnPznCh_uuBDFXuvqWvI-14" target="6a7d8f32e03d9370-13">
          <mxGeometry relative="1" as="geometry">
            <mxPoint x="605" y="348" as="sourcePoint" />
            <mxPoint x="983" y="597" as="targetPoint" />
          </mxGeometry>
        </mxCell>
        <mxCell id="ZnPznCh_uuBDFXuvqWvI-14" value="" style="verticalLabelPosition=bottom;aspect=fixed;html=1;verticalAlign=top;strokeColor=none;shape=mxgraph.citrix.firewall;fillColor=#66B2FF;gradientColor=#0066CC;fontSize=14;" vertex="1" parent="1">
          <mxGeometry x="830" y="686.75" width="75" height="93" as="geometry" />
        </mxCell>
        <mxCell id="ZnPznCh_uuBDFXuvqWvI-22" value="" style="outlineConnect=0;dashed=0;verticalLabelPosition=bottom;verticalAlign=top;align=center;html=1;shape=mxgraph.aws3.sensor;fillColor=#5294CF;gradientColor=none;" vertex="1" parent="1">
          <mxGeometry x="71.5" y="279.5" width="76.5" height="90" as="geometry" />
        </mxCell>
        <mxCell id="ZnPznCh_uuBDFXuvqWvI-23" value="" style="endArrow=none;html=1;rounded=0;" edge="1" parent="1" source="ZnPznCh_uuBDFXuvqWvI-22" target="ZnPznCh_uuBDFXuvqWvI-3">
          <mxGeometry width="50" height="50" relative="1" as="geometry">
            <mxPoint x="298" y="336" as="sourcePoint" />
            <mxPoint x="321" y="335" as="targetPoint" />
          </mxGeometry>
        </mxCell>
        <mxCell id="ZnPznCh_uuBDFXuvqWvI-25" style="edgeStyle=none;rounded=0;html=1;startSize=10;endSize=10;jettySize=auto;orthogonalLoop=1;fontSize=14;endArrow=none;endFill=0;strokeWidth=2;exitX=1;exitY=0.45;exitDx=0;exitDy=0;exitPerimeter=0;entryX=0.603;entryY=0.433;entryDx=0;entryDy=0;entryPerimeter=0;" edge="1" parent="1" source="ZnPznCh_uuBDFXuvqWvI-28" target="ZnPznCh_uuBDFXuvqWvI-32">
          <mxGeometry relative="1" as="geometry">
            <mxPoint x="583.9999999999995" y="1049.125514403292" as="sourcePoint" />
            <mxPoint x="651" y="1162.3520408163267" as="targetPoint" />
          </mxGeometry>
        </mxCell>
        <mxCell id="ZnPznCh_uuBDFXuvqWvI-33" style="edgeStyle=none;rounded=0;html=1;startSize=10;endSize=10;jettySize=auto;orthogonalLoop=1;fontSize=14;endArrow=none;endFill=0;strokeWidth=2;exitX=0.538;exitY=0.599;exitDx=0;exitDy=0;exitPerimeter=0;entryX=0.428;entryY=0.474;entryDx=0;entryDy=0;entryPerimeter=0;" edge="1" parent="1" source="ZnPznCh_uuBDFXuvqWvI-32" target="6a7d8f32e03d9370-13">
          <mxGeometry relative="1" as="geometry">
            <mxPoint x="848" y="741" as="sourcePoint" />
            <mxPoint x="987" y="634" as="targetPoint" />
          </mxGeometry>
        </mxCell>
        <mxCell id="ZnPznCh_uuBDFXuvqWvI-32" value="" style="verticalLabelPosition=bottom;aspect=fixed;html=1;verticalAlign=top;strokeColor=none;shape=mxgraph.citrix.firewall;fillColor=#66B2FF;gradientColor=#0066CC;fontSize=14;" vertex="1" parent="1">
          <mxGeometry x="830" y="1114.75" width="75" height="93" as="geometry" />
        </mxCell>
        <mxCell id="ZnPznCh_uuBDFXuvqWvI-35" style="edgeStyle=none;rounded=0;html=1;startSize=10;endSize=10;jettySize=auto;orthogonalLoop=1;fontSize=14;endArrow=none;endFill=0;strokeWidth=2;entryX=0.4;entryY=0.1;entryDx=0;entryDy=0;entryPerimeter=0;" edge="1" parent="1" target="ZnPznCh_uuBDFXuvqWvI-36">
          <mxGeometry relative="1" as="geometry">
            <mxPoint x="1011" y="597" as="sourcePoint" />
            <mxPoint x="1083.528368794326" y="710" as="targetPoint" />
          </mxGeometry>
        </mxCell>
        <mxCell id="ZnPznCh_uuBDFXuvqWvI-36" value="Cloud" style="ellipse;shape=cloud;whiteSpace=wrap;html=1;align=center;" vertex="1" parent="1">
          <mxGeometry x="917" y="710" width="660" height="440" as="geometry" />
        </mxCell>
        <mxCell id="6a7d8f32e03d9370-13" value="" style="verticalLabelPosition=bottom;aspect=fixed;html=1;verticalAlign=top;strokeColor=none;shape=mxgraph.citrix.router;fillColor=#66B2FF;gradientColor=#0066CC;fontSize=14;" parent="1" vertex="1">
          <mxGeometry x="973" y="587" width="55" height="36.5" as="geometry" />
        </mxCell>
        <mxCell id="ZnPznCh_uuBDFXuvqWvI-37" value="" style="verticalLabelPosition=bottom;aspect=fixed;html=1;verticalAlign=top;strokeColor=none;shape=mxgraph.citrix.switch;fillColor=#66B2FF;gradientColor=#0066CC;fontSize=14;" vertex="1" parent="1">
          <mxGeometry x="471" y="409" width="92" height="41.5" as="geometry" />
        </mxCell>
        <mxCell id="ZnPznCh_uuBDFXuvqWvI-38" style="edgeStyle=none;rounded=0;html=1;startSize=10;endSize=10;jettySize=auto;orthogonalLoop=1;fontSize=14;endArrow=none;endFill=0;strokeWidth=2;entryX=0.41;entryY=0.464;entryDx=0;entryDy=0;entryPerimeter=0;" edge="1" parent="1" source="ZnPznCh_uuBDFXuvqWvI-4" target="ZnPznCh_uuBDFXuvqWvI-37">
          <mxGeometry relative="1" as="geometry">
            <mxPoint x="556" y="327" as="sourcePoint" />
            <mxPoint x="818" y="325" as="targetPoint" />
          </mxGeometry>
        </mxCell>
        <mxCell id="ZnPznCh_uuBDFXuvqWvI-40" style="edgeStyle=none;rounded=0;html=1;startSize=10;endSize=10;jettySize=auto;orthogonalLoop=1;fontSize=14;endArrow=none;endFill=0;strokeWidth=2;exitX=0.303;exitY=0.504;exitDx=0;exitDy=0;exitPerimeter=0;" edge="1" parent="1" source="ZnPznCh_uuBDFXuvqWvI-39" target="ZnPznCh_uuBDFXuvqWvI-37">
          <mxGeometry relative="1" as="geometry">
            <mxPoint x="1233" y="518" as="sourcePoint" />
            <mxPoint x="1244" y="419" as="targetPoint" />
          </mxGeometry>
        </mxCell>
        <mxCell id="ZnPznCh_uuBDFXuvqWvI-39" value="Client" style="verticalLabelPosition=top;aspect=fixed;html=1;verticalAlign=bottom;strokeColor=none;shape=mxgraph.citrix.thin_client;fillColor=#66B2FF;gradientColor=#0066CC;fontSize=14;labelPosition=center;align=center;" vertex="1" parent="1">
          <mxGeometry x="670" y="394.25" width="71" height="71" as="geometry" />
        </mxCell>
        <mxCell id="ZnPznCh_uuBDFXuvqWvI-41" value="" style="group" vertex="1" connectable="0" parent="1">
          <mxGeometry x="40" y="522" width="541" height="388" as="geometry" />
        </mxCell>
        <mxCell id="ZnPznCh_uuBDFXuvqWvI-12" value="Cargo Area" style="whiteSpace=wrap;html=1;fillColor=#FFD470;gradientColor=none;fontSize=14;strokeColor=none;verticalAlign=top;" vertex="1" parent="ZnPznCh_uuBDFXuvqWvI-41">
          <mxGeometry y="98" width="541" height="290" as="geometry" />
        </mxCell>
        <mxCell id="ZnPznCh_uuBDFXuvqWvI-15" value="" style="shape=mxgraph.signs.transportation.ship_2;html=1;pointerEvents=1;fillColor=#000000;strokeColor=none;verticalLabelPosition=bottom;verticalAlign=top;align=center;" vertex="1" parent="ZnPznCh_uuBDFXuvqWvI-41">
          <mxGeometry x="81" width="99" height="98" as="geometry" />
        </mxCell>
        <mxCell id="ZnPznCh_uuBDFXuvqWvI-16" value="" style="outlineConnect=0;dashed=0;verticalLabelPosition=bottom;verticalAlign=top;align=center;html=1;shape=mxgraph.aws3.actuator;fillColor=#5294CF;gradientColor=none;" vertex="1" parent="ZnPznCh_uuBDFXuvqWvI-41">
          <mxGeometry x="31.5" y="128" width="76.5" height="90" as="geometry" />
        </mxCell>
        <mxCell id="ZnPznCh_uuBDFXuvqWvI-17" value="" style="outlineConnect=0;dashed=0;verticalLabelPosition=bottom;verticalAlign=top;align=center;html=1;shape=mxgraph.aws3.simulator;fillColor=#5294CF;gradientColor=none;" vertex="1" parent="ZnPznCh_uuBDFXuvqWvI-41">
          <mxGeometry x="441" y="179.75" width="75" height="78" as="geometry" />
        </mxCell>
        <mxCell id="ZnPznCh_uuBDFXuvqWvI-18" value="" style="outlineConnect=0;dashed=0;verticalLabelPosition=bottom;verticalAlign=top;align=center;html=1;shape=mxgraph.aws3.sensor;fillColor=#5294CF;gradientColor=none;" vertex="1" parent="ZnPznCh_uuBDFXuvqWvI-41">
          <mxGeometry x="31.5" y="238" width="76.5" height="90" as="geometry" />
        </mxCell>
        <mxCell id="ZnPznCh_uuBDFXuvqWvI-19" value="" style="endArrow=none;html=1;rounded=0;" edge="1" parent="ZnPznCh_uuBDFXuvqWvI-41" target="ZnPznCh_uuBDFXuvqWvI-17">
          <mxGeometry width="50" height="50" relative="1" as="geometry">
            <mxPoint x="104" y="267.5" as="sourcePoint" />
            <mxPoint x="154" y="217.5" as="targetPoint" />
          </mxGeometry>
        </mxCell>
        <mxCell id="ZnPznCh_uuBDFXuvqWvI-20" value="" style="endArrow=none;html=1;rounded=0;" edge="1" parent="ZnPznCh_uuBDFXuvqWvI-41" target="ZnPznCh_uuBDFXuvqWvI-17">
          <mxGeometry width="50" height="50" relative="1" as="geometry">
            <mxPoint x="108" y="161.5" as="sourcePoint" />
            <mxPoint x="324" y="128" as="targetPoint" />
          </mxGeometry>
        </mxCell>
        <mxCell id="ZnPznCh_uuBDFXuvqWvI-42" value="" style="group" vertex="1" connectable="0" parent="1">
          <mxGeometry x="40" y="950" width="541" height="388" as="geometry" />
        </mxCell>
        <mxCell id="ZnPznCh_uuBDFXuvqWvI-24" value="Cargo Area" style="whiteSpace=wrap;html=1;fillColor=#FFD470;gradientColor=none;fontSize=14;strokeColor=none;verticalAlign=top;" vertex="1" parent="ZnPznCh_uuBDFXuvqWvI-42">
          <mxGeometry y="98" width="541" height="290" as="geometry" />
        </mxCell>
        <mxCell id="ZnPznCh_uuBDFXuvqWvI-26" value="" style="shape=mxgraph.signs.transportation.ship_2;html=1;pointerEvents=1;fillColor=#000000;strokeColor=none;verticalLabelPosition=bottom;verticalAlign=top;align=center;" vertex="1" parent="ZnPznCh_uuBDFXuvqWvI-42">
          <mxGeometry x="81" width="99" height="98" as="geometry" />
        </mxCell>
        <mxCell id="ZnPznCh_uuBDFXuvqWvI-27" value="" style="outlineConnect=0;dashed=0;verticalLabelPosition=bottom;verticalAlign=top;align=center;html=1;shape=mxgraph.aws3.actuator;fillColor=#5294CF;gradientColor=none;" vertex="1" parent="ZnPznCh_uuBDFXuvqWvI-42">
          <mxGeometry x="31.5" y="128" width="76.5" height="90" as="geometry" />
        </mxCell>
        <mxCell id="ZnPznCh_uuBDFXuvqWvI-28" value="" style="outlineConnect=0;dashed=0;verticalLabelPosition=bottom;verticalAlign=top;align=center;html=1;shape=mxgraph.aws3.simulator;fillColor=#5294CF;gradientColor=none;" vertex="1" parent="ZnPznCh_uuBDFXuvqWvI-42">
          <mxGeometry x="441" y="179.75" width="75" height="78" as="geometry" />
        </mxCell>
        <mxCell id="ZnPznCh_uuBDFXuvqWvI-29" value="" style="outlineConnect=0;dashed=0;verticalLabelPosition=bottom;verticalAlign=top;align=center;html=1;shape=mxgraph.aws3.sensor;fillColor=#5294CF;gradientColor=none;" vertex="1" parent="ZnPznCh_uuBDFXuvqWvI-42">
          <mxGeometry x="31.5" y="238" width="76.5" height="90" as="geometry" />
        </mxCell>
        <mxCell id="ZnPznCh_uuBDFXuvqWvI-30" value="" style="endArrow=none;html=1;rounded=0;" edge="1" parent="ZnPznCh_uuBDFXuvqWvI-42" target="ZnPznCh_uuBDFXuvqWvI-28">
          <mxGeometry width="50" height="50" relative="1" as="geometry">
            <mxPoint x="104" y="267.5" as="sourcePoint" />
            <mxPoint x="154" y="217.5" as="targetPoint" />
          </mxGeometry>
        </mxCell>
        <mxCell id="ZnPznCh_uuBDFXuvqWvI-31" value="" style="endArrow=none;html=1;rounded=0;" edge="1" parent="ZnPznCh_uuBDFXuvqWvI-42" target="ZnPznCh_uuBDFXuvqWvI-28">
          <mxGeometry width="50" height="50" relative="1" as="geometry">
            <mxPoint x="108" y="161.5" as="sourcePoint" />
            <mxPoint x="324" y="128" as="targetPoint" />
          </mxGeometry>
        </mxCell>
      </root>
    </mxGraphModel>
  </diagram>
</mxfile>
